<svg version="1.1" id="Layer_1" xmlns="http://www.w3.org/2000/svg" xmlns:xlink="http://www.w3.org/1999/xlink" x="0px" y="0px"
	 width="100%" viewBox="0 0 800 1024" enable-background="new 0 0 800 1024" xml:space="preserve">
<path fill="#000000" opacity="1.000000" stroke="none" 
	d="
M159.757339,406.235596 
	C152.184906,397.471619 146.912323,388.197113 147.619202,376.394379 
	C147.985840,370.272522 147.701965,364.182190 149.171005,358.072540 
	C150.570496,352.252167 153.169540,347.959778 158.069809,344.341125 
	C168.426254,336.693207 180.061935,331.700928 191.520447,326.126862 
	C202.176102,320.943390 213.129898,316.350861 223.352066,310.121307 
	C236.412262,302.162323 248.261002,292.527649 260.733765,283.821686 
	C271.955322,275.989105 282.757782,266.643555 289.321716,253.798080 
	C290.507324,251.477814 292.468262,249.638428 293.751495,247.243073 
	C298.005066,239.303055 298.065399,230.643997 298.640350,222.081497 
	C299.296844,212.303925 297.122681,202.290558 299.715576,192.734482 
	C303.808197,177.650894 312.375549,165.629822 327.241974,159.417694 
	C333.992523,156.596878 341.498383,157.344772 348.439240,158.745865 
	C358.010803,160.677994 367.286102,163.755341 377.305634,163.131836 
	C383.019867,162.776230 387.857300,167.084793 393.637085,167.320679 
	C406.053375,167.827454 418.448151,169.279633 430.828003,166.383850 
	C436.445312,165.069931 442.341064,165.325165 448.107117,164.528580 
	C454.809235,163.602692 459.537354,160.269867 464.061127,156.227890 
	C478.433319,143.386429 492.893097,130.651428 508.675873,119.554718 
	C521.412354,110.599831 533.396423,100.693604 544.865540,90.253052 
	C549.037415,86.455353 553.147705,82.275490 557.854309,79.638649 
	C565.911926,75.124466 572.336914,68.463356 581.374695,64.922943 
	C590.046631,61.525845 598.132385,55.681442 606.130615,50.370155 
	C610.243103,47.639233 614.287292,45.339344 619.446533,45.618958 
	C623.101990,45.817074 626.823059,46.035355 630.434204,45.590565 
	C641.059204,44.281887 648.032837,50.322140 654.252869,57.401287 
	C660.036194,63.983429 664.807922,71.457748 669.599426,78.733551 
	C673.887817,85.245377 676.198975,93.068832 677.260742,101.109993 
	C678.906006,113.570763 679.396179,126.277870 677.662720,138.449738 
	C675.908081,150.769348 675.110046,163.410294 670.827820,175.493759 
	C668.850159,181.074234 668.168884,187.398346 666.278748,193.200043 
	C662.754822,204.016327 659.133789,214.789948 654.506897,225.232224 
	C651.236450,232.613022 647.399170,239.726303 644.308167,247.155655 
	C641.468506,253.980606 637.577820,260.302612 633.327881,266.015656 
	C620.444336,283.334686 607.570496,301.021454 589.363281,313.252350 
	C576.142334,322.133667 563.996521,332.399933 550.722717,341.252899 
	C536.453857,350.769440 521.669067,359.712921 508.058563,370.725861 
	C513.424683,375.595459 518.488220,380.352692 523.727966,384.907104 
	C531.506104,391.667877 538.093994,399.573334 545.298035,406.843475 
	C550.950195,412.547424 555.592346,418.907074 560.565674,425.025696 
	C566.282043,432.058594 571.128845,439.802826 576.287231,447.283722 
	C584.163757,458.706604 591.883789,470.218109 600.124390,481.409912 
	C605.299561,488.438416 610.283752,496.004578 614.328674,504.070618 
	C618.113037,511.617249 621.674438,519.239990 625.329895,526.839539 
	C631.364807,539.386108 634.353516,552.618347 634.869629,566.222595 
	C635.563965,584.526123 636.498047,603.043640 634.492126,621.155029 
	C632.924133,635.311890 632.480713,649.817749 627.933777,663.753662 
	C624.978149,672.812500 624.824036,682.744873 622.627686,692.101196 
	C619.109802,707.087402 613.621399,721.453613 608.467712,735.965942 
	C602.026917,754.102600 589.297546,765.216309 573.659363,774.604065 
	C559.234253,783.263794 543.776306,789.799927 528.297913,795.904297 
	C520.773865,798.871582 513.773193,802.778687 506.308868,805.738831 
	C500.808044,807.920288 496.275208,812.081604 490.396332,813.663818 
	C488.152344,814.267822 486.037659,815.204407 483.639099,815.146362 
	C482.669708,815.122925 481.195587,815.110413 480.795258,815.683105 
	C477.259308,820.740540 470.717926,821.413940 466.630310,825.594971 
	C464.826080,827.440552 462.510406,828.345947 460.156647,829.231628 
	C453.244049,831.832703 447.479370,836.684692 439.785248,838.127625 
	C435.758148,838.882812 432.356842,843.016785 427.732819,844.434509 
	C420.793762,846.562012 414.014343,849.067200 406.831421,850.480042 
	C400.632355,851.699219 394.922272,854.316223 389.618439,858.052063 
	C385.046051,861.272644 379.943939,863.851196 374.827698,866.164246 
	C366.963348,869.719788 359.107971,873.638611 350.832916,875.839294 
	C343.523010,877.783203 336.039093,880.397400 328.544800,880.630798 
	C309.075073,881.237305 289.574188,881.272949 270.080505,880.534851 
	C260.235596,880.162048 248.395065,869.782776 249.364471,858.191589 
	C250.346375,846.451111 249.499924,834.625305 254.407669,823.443237 
	C256.705139,818.208435 261.442413,814.495422 263.030548,808.902527 
	C267.193420,794.241882 274.212891,780.633606 278.055206,765.766602 
	C281.645264,751.875732 285.904846,738.103271 289.797607,724.263794 
	C296.946350,698.848999 298.675171,672.660828 296.291901,646.645142 
	C294.376740,625.739502 287.726044,605.715271 272.854889,589.613708 
	C272.402985,589.124329 271.685303,588.749023 271.482330,588.180847 
	C268.701447,580.397156 261.039001,578.712341 254.981705,575.205750 
	C247.327820,570.774902 240.111099,566.114380 234.157562,559.313538 
	C227.058823,551.204590 228.189087,541.812378 229.360931,532.773987 
	C231.124466,519.172119 235.169693,506.013000 239.149704,492.845184 
	C242.061966,483.210022 244.564560,472.786224 242.336487,462.909576 
	C240.131622,453.135773 239.304077,441.050171 227.617203,436.888824 
	C214.817215,432.331146 202.377823,426.882477 189.551743,422.380188 
	C179.024216,418.684753 168.264465,414.727661 159.757339,406.235596 
M519.866577,337.357849 
	C522.635864,336.350372 524.218872,333.752045 526.610718,332.277802 
	C540.362976,323.801086 553.006714,313.767029 566.104004,304.369171 
	C568.691895,302.512238 568.920959,300.830383 567.325989,298.138153 
	C562.061768,289.252197 557.001099,280.245483 551.881287,271.274292 
	C550.964294,269.667358 550.097473,267.965820 548.271973,267.280182 
	C542.217834,265.006256 536.487549,261.970764 529.949402,260.842743 
	C525.635742,260.098572 523.637390,261.244812 522.020935,265.210052 
	C516.362244,279.091461 510.415558,292.856232 504.493317,306.628754 
	C503.439667,309.079041 503.205353,311.333496 504.299500,313.823364 
	C507.515228,321.140991 510.650421,328.494385 513.766785,335.855103 
	C514.928894,338.599823 516.625488,339.385925 519.866577,337.357849 
M489.439026,306.125397 
	C484.077148,303.093384 478.647430,300.173065 473.385071,296.977203 
	C471.118530,295.600739 469.299164,295.540344 466.933319,296.766296 
	C449.026337,306.045502 449.005951,306.006195 441.975800,324.903625 
	C441.685638,325.683533 441.482605,326.509674 441.093750,327.236633 
	C439.519531,330.179352 440.593414,332.241180 443.068817,334.058350 
	C455.281494,343.023438 467.464874,352.028534 479.639832,361.044830 
	C481.093048,362.121033 482.158020,362.425903 484.031708,361.328369 
	C493.082245,356.026825 501.202545,349.395142 509.933441,343.651215 
	C512.370728,342.047791 512.611328,340.380737 511.349152,337.810242 
	C508.856812,332.734528 506.153259,327.664215 504.508392,322.294128 
	C502.137726,314.554169 497.707581,309.184357 489.439026,306.125397 
M416.097382,350.722229 
	C411.716461,360.098846 409.473602,370.188141 406.404358,379.999054 
	C405.599182,382.572906 407.554169,383.376404 409.648529,384.041504 
	C419.005371,387.012909 428.352966,390.017487 437.654388,393.156799 
	C440.281433,394.043457 442.393005,393.580658 444.721039,392.229309 
	C455.227570,386.130707 465.822693,380.184906 476.374420,374.163910 
	C482.591919,370.616119 482.707886,367.435669 476.796906,363.045624 
	C465.305725,354.511261 453.804504,345.990509 442.312836,337.456848 
	C436.563171,333.187225 432.040955,333.452332 426.953094,338.690674 
	C423.361145,342.388885 420.018982,346.329712 416.097382,350.722229 
M455.686523,184.255798 
	C449.169830,185.652786 449.165222,185.653717 450.457550,192.001678 
	C450.656555,192.979095 450.963379,193.935272 451.146545,194.915085 
	C453.254944,206.192078 455.358063,217.470078 457.444122,228.751221 
	C459.073944,237.565216 464.808563,241.251022 473.310822,238.973053 
	C481.824371,236.692001 490.350891,234.459351 498.871155,232.203232 
	C500.476898,231.778046 502.198303,231.516098 502.762360,229.556702 
	C504.417969,223.805389 506.128723,218.069061 507.697937,212.294281 
	C508.225800,210.351578 507.116302,208.753387 505.963257,207.287292 
	C497.320801,196.298386 488.673981,185.312881 480.020447,174.332672 
	C479.402069,173.548065 478.744873,172.775299 477.106232,172.732452 
	C471.228241,177.769272 465.124908,183.308823 455.686523,184.255798 
M570.726990,95.113274 
	C569.331482,97.143784 566.389465,97.685875 565.677429,100.060738 
	C571.162048,111.162331 580.950439,117.150444 590.901001,122.976654 
	C592.714966,124.038780 594.035217,123.052673 595.511353,122.283661 
	C613.430359,112.948631 630.249634,102.010307 645.484619,88.658180 
	C648.035156,86.422829 648.625977,84.716606 646.540283,82.063004 
	C642.748535,77.238838 639.718079,71.806786 635.085327,67.655937 
	C631.299255,64.263687 621.345886,64.130264 617.446228,67.349937 
	C612.577637,71.369568 607.491882,75.010498 601.789673,77.855263 
	C594.538391,81.472862 588.041565,86.853622 579.861633,88.237442 
	C575.594238,88.959373 572.845276,90.745956 570.726990,95.113274 
M404.528290,830.224182 
	C405.680389,829.409485 405.714233,828.299011 405.296936,827.114807 
	C402.314056,818.649536 399.313324,810.190491 396.329437,801.725586 
	C395.477539,799.308838 393.440247,798.726074 391.243347,798.337280 
	C386.499603,797.497864 381.764557,796.608398 377.016113,795.796936 
	C368.500244,794.341614 359.994141,792.813416 351.448975,791.552856 
	C347.856354,791.023010 342.359680,790.750732 341.894928,794.372925 
	C341.048462,800.970154 339.529572,808.231140 344.471771,814.451782 
	C351.815247,823.694946 359.043518,833.034302 366.110168,842.490112 
	C368.338318,845.471619 370.358307,846.161194 373.570923,844.111206 
	C382.988098,838.101990 393.027740,833.420227 404.528290,830.224182 
M489.093872,399.561981 
	C482.343323,410.337921 475.362183,420.471619 475.780609,434.619446 
	C476.081696,444.799561 478.217346,451.392883 487.639740,455.793610 
	C493.725250,458.635864 494.065247,459.145569 499.143677,454.252808 
	C508.966675,444.789001 518.776001,435.305298 528.829529,426.090088 
	C531.644531,423.509796 531.512695,421.995972 529.142334,419.248993 
	C522.053101,411.033630 513.776489,404.069489 505.862640,396.745361 
	C496.744934,388.307159 496.540283,388.528290 489.093872,399.561981 
M413.843964,752.543823 
	C404.883942,752.822937 402.947479,754.528076 402.065369,762.812927 
	C401.008606,772.738037 400.056458,782.677612 398.768097,792.572998 
	C398.342285,795.843506 398.583588,798.825134 399.739441,801.849915 
	C401.046265,805.269958 402.086548,808.797241 403.500732,812.169678 
	C405.850433,817.772766 406.786865,823.958557 410.185181,829.401001 
	C422.587219,825.966125 433.258270,819.433472 444.568939,814.394897 
	C447.478516,813.098755 447.861237,811.256653 446.234497,808.438416 
	C435.577698,789.976074 425.037354,771.446533 413.843964,752.543823 
M454.725098,741.072754 
	C452.641876,743.208069 454.267090,745.067505 455.188263,746.953857 
	C462.200867,761.314087 469.218536,775.671814 476.264191,790.015869 
	C476.826508,791.160645 477.099396,792.612000 477.569489,792.730164 
	C485.858643,791.682617 492.715729,789.355408 499.306549,786.176453 
	C502.483002,784.644409 504.314453,782.969604 502.994354,778.843872 
	C496.805908,759.503113 490.926270,740.063599 484.836151,720.690918 
	C484.185974,718.622742 484.264648,715.752869 481.241150,715.254456 
	C478.287231,714.767578 476.791748,717.019287 475.109283,718.853760 
	C468.469910,726.092957 461.820923,733.323364 454.725098,741.072754 
M590.147644,242.252106 
	C597.457275,245.868896 604.822449,249.379166 612.050415,253.152359 
	C615.148071,254.769424 617.348755,254.567719 618.975586,251.333939 
	C624.940063,239.478149 630.896851,227.618484 636.883728,215.774002 
	C638.265137,213.041122 637.439148,211.496063 634.614136,210.471527 
	C624.759399,206.897491 614.920837,203.274536 605.140259,199.503662 
	C602.661682,198.548065 600.854370,198.879730 598.752380,200.448853 
	C593.685974,204.230942 588.612854,208.066940 583.192993,211.294327 
	C578.202576,214.265961 576.513245,217.615280 577.080200,223.744247 
	C577.896729,232.573181 579.828003,239.589417 590.147644,242.252106 
M370.218567,215.683640 
	C372.705261,207.059830 375.172974,198.430466 377.685486,189.814194 
	C379.297150,184.287216 378.707336,183.325043 372.839539,183.293243 
	C363.341797,183.241776 354.107941,182.361618 345.053345,178.888657 
	C340.535614,177.155853 335.377594,177.074005 331.036499,181.041229 
	C321.906403,189.384979 316.822083,199.173050 318.115143,211.914276 
	C318.432892,215.044830 319.163361,216.729797 322.332611,217.502228 
	C332.664520,220.020325 342.933899,222.793610 353.250977,225.374344 
	C358.441467,226.672714 367.867889,221.534348 370.218567,215.683640 
M440.922394,418.612244 
	C443.854462,411.759705 440.754028,405.253998 439.685852,398.652893 
	C439.380096,396.763306 437.359863,396.458038 435.792450,395.956848 
	C426.296478,392.920441 416.809998,389.852448 407.284668,386.910583 
	C402.986694,385.583130 398.800079,387.910339 397.568451,392.176300 
	C397.063263,393.926147 397.085052,395.852875 396.435791,397.532410 
	C391.221039,411.022186 393.869232,422.784760 402.269836,434.520691 
	C410.526337,446.055267 406.204163,445.452332 420.947021,440.973724 
	C432.401062,437.494232 439.340790,431.357574 440.922394,418.612244 
M425.730682,765.805664 
	C433.452026,779.425598 441.327698,792.961670 448.801788,806.715942 
	C451.076599,810.902283 452.998230,810.890808 456.442474,808.275818 
	C461.325256,804.568665 466.352722,800.986633 471.640381,797.903442 
	C474.725952,796.104309 475.051270,794.462830 473.578491,791.534180 
	C466.168762,776.799805 458.864014,762.012756 451.517517,747.246643 
	C450.846375,745.897766 450.090210,744.705688 448.590607,743.996216 
	C438.957581,739.438354 427.461914,741.034851 419.480164,747.940186 
	C417.653839,749.520203 417.128479,750.810608 418.469025,753.001648 
	C420.900543,756.975769 423.079468,761.104492 425.730682,765.805664 
M312.290192,588.867126 
	C310.878265,589.751160 309.454651,590.617065 308.056519,591.522400 
	C302.163361,595.338379 302.435791,595.290588 305.754517,601.684021 
	C309.737976,609.358093 312.281738,617.606934 313.415344,626.214417 
	C313.931824,630.136169 314.974579,632.230652 319.797882,630.963013 
	C327.837006,628.850098 336.075806,627.494751 344.234161,625.838379 
	C353.550690,623.946716 358.727234,613.032959 354.465576,604.326965 
	C350.658508,596.549744 346.840607,588.776123 343.178741,580.930359 
	C341.960968,578.321228 340.525665,577.695801 337.467590,577.651489 
	C327.468353,577.506531 320.305511,583.128296 312.290192,588.867126 
M248.310135,410.813965 
	C255.133942,403.892853 261.957764,396.971710 267.694031,391.153625 
	C261.262085,384.068146 255.352768,377.533173 249.408890,371.029785 
	C248.045914,369.538483 246.458176,369.344788 244.430405,369.903534 
	C236.416229,372.111755 228.381256,374.272308 220.277832,376.115723 
	C216.863693,376.892426 215.251465,378.757050 214.283112,381.915710 
	C212.284683,388.434265 210.357346,395.006256 207.792801,401.308868 
	C205.981461,405.760437 207.651764,407.500549 211.462708,409.115356 
	C218.213547,411.975922 225.597519,413.217896 232.101944,416.313263 
	C238.589111,419.400391 242.675476,418.109100 246.439148,412.764954 
	C246.817841,412.227234 247.353989,411.800446 248.310135,410.813965 
M561.295776,281.261169 
	C564.096191,286.178162 566.882385,291.103333 569.704956,296.007538 
	C570.640869,297.633728 571.782349,299.510406 573.959595,298.253387 
	C577.792969,296.040314 582.112061,294.732849 585.118835,290.967438 
	C588.100769,287.233124 591.774414,284.031036 595.279053,280.738495 
	C602.447388,274.003937 608.097412,266.118835 613.960205,257.516144 
	C602.295288,251.834015 591.237122,246.473099 580.207458,241.054108 
	C577.850830,239.896301 576.477356,241.179672 575.065491,242.727036 
	C570.690247,247.522232 566.266174,252.273010 561.906067,257.081818 
	C553.302673,266.570679 553.314331,266.582489 559.516357,277.979401 
	C559.993835,278.856903 560.494202,279.721954 561.295776,281.261169 
M186.490158,351.038635 
	C184.861938,351.873749 183.053772,352.479187 181.639526,353.587372 
	C177.519043,356.816162 172.034637,358.703949 169.616730,363.641205 
	C164.335297,374.425720 168.403824,386.548248 176.416550,393.380524 
	C183.914688,399.774017 193.857178,401.503967 202.303513,404.950928 
	C210.920319,388.204010 215.106873,371.621124 206.659546,354.080658 
	C205.810089,352.316833 205.682098,350.216095 205.113663,348.303101 
	C204.655502,346.761169 204.769699,344.920105 202.948364,343.860321 
	C197.152191,344.748993 192.425537,348.373566 186.490158,351.038635 
M441.802124,315.400970 
	C442.207336,314.307861 442.474487,313.136536 443.041748,312.135254 
	C445.444916,307.893463 445.093445,304.509521 441.585052,300.600494 
	C435.915039,294.282928 431.023651,287.165771 428.050568,279.150543 
	C425.645203,272.665955 419.419647,271.876160 414.725128,268.787598 
	C414.242279,268.469910 412.963135,268.743896 412.443542,269.193848 
	C404.927399,275.702240 395.374695,280.630707 395.309631,292.754089 
	C395.290649,296.293427 395.544098,299.043884 398.204865,301.722382 
	C407.359344,310.937988 416.285095,320.381287 425.270386,329.764221 
	C429.581146,334.265808 434.922882,333.248779 437.317627,327.345947 
	C438.819366,323.644318 440.159180,319.876984 441.802124,315.400970 
M575.947449,585.904602 
	C577.867310,598.038391 579.765076,610.175720 581.725647,622.302917 
	C582.119141,624.736877 582.325928,627.293213 585.775879,627.663574 
	C593.705200,628.514587 601.614563,629.552368 609.530396,630.527588 
	C611.284851,630.743713 612.456604,630.167725 612.769653,628.311584 
	C613.512451,623.907410 614.785217,619.515320 614.890076,615.095764 
	C615.162354,603.629272 614.940674,592.150391 614.862549,580.676819 
	C614.850464,578.896362 615.282959,577.011780 614.046387,575.209167 
	C613.488525,575.144348 612.831421,574.934937 612.212158,575.015686 
	C601.011597,576.476624 589.812012,577.945496 578.620850,579.476624 
	C575.091858,579.959412 575.101013,582.393799 575.947449,585.904602 
M599.929077,525.843445 
	C591.118408,530.554016 582.305542,535.260376 573.498901,539.978455 
	C571.552979,541.020996 569.894043,542.259521 569.291382,544.620361 
	C567.273743,552.523376 565.166443,560.403625 563.063965,568.284668 
	C562.660522,569.797058 562.231567,571.310730 563.996887,572.207947 
	C568.840393,574.669739 573.309387,577.555542 579.454224,576.360962 
	C589.734924,574.362427 600.169495,573.102722 610.575928,571.832581 
	C614.080200,571.404968 615.255981,569.860657 614.836670,566.617798 
	C613.095215,553.150024 609.394165,540.268250 603.308228,528.101196 
	C602.722961,526.931091 602.333069,525.523865 599.929077,525.843445 
M550.023743,203.306488 
	C545.716797,201.791870 541.676758,199.017136 536.705383,201.136673 
	C529.367310,204.265259 521.968872,207.254242 514.566345,210.228424 
	C512.561829,211.033783 511.282410,212.262665 510.690216,214.391724 
	C509.220612,219.675186 507.651215,224.931641 506.055786,230.178848 
	C505.642883,231.536880 505.542297,232.721710 506.467712,233.927277 
	C511.833710,240.917725 516.880188,248.179428 522.607056,254.858582 
	C527.161194,260.169983 534.411255,258.448273 536.831970,251.970505 
	C542.069397,237.955475 547.185791,223.894119 552.568970,209.935532 
	C553.703674,206.993195 553.143921,205.200912 550.023743,203.306488 
M516.903870,718.584534 
	C514.370728,715.491943 511.670685,712.518677 509.349335,709.274475 
	C506.824615,705.745972 504.249420,704.548828 500.187561,707.094727 
	C496.820587,709.205200 493.080780,710.743164 489.437408,712.381836 
	C487.196106,713.389893 486.545837,714.834656 487.261444,717.151855 
	C493.548645,737.510193 499.798553,757.879944 506.076965,778.240967 
	C506.462982,779.492859 506.785919,780.829895 508.484009,781.052490 
	C513.613525,781.725220 519.385620,776.505005 519.707581,771.173706 
	C520.409363,759.551697 520.889404,747.893738 522.241882,736.342041 
	C523.027161,729.635010 522.831665,723.791321 516.903870,718.584534 
M501.357635,196.174301 
	C503.647064,199.243912 505.928589,202.319489 508.229614,205.380417 
	C509.262299,206.754135 510.466248,208.152435 512.373047,207.401215 
	C520.827759,204.070328 529.238464,200.627777 538.403625,196.927429 
	C527.424927,179.999069 516.895142,163.762924 506.232300,147.321640 
	C497.602570,152.874512 492.413635,161.221817 484.440430,166.347610 
	C481.175140,168.446777 481.150299,170.658493 483.603455,173.647263 
	C489.518188,180.853470 495.179901,188.267380 501.357635,196.174301 
M479.234741,664.739075 
	C472.883698,670.122803 466.652588,675.657654 460.134399,680.830811 
	C456.508911,683.708008 455.689972,686.011597 459.327545,689.588745 
	C463.594604,693.784973 467.367188,698.482483 471.377380,702.941711 
	C480.033173,712.566772 477.396515,714.634399 492.772980,707.139893 
	C499.890259,703.670959 506.973633,700.716797 508.458649,691.487244 
	C508.880066,688.868103 509.253540,686.902100 507.645416,684.583496 
	C502.709015,677.466064 497.987701,670.199585 493.178467,662.993896 
	C488.781219,656.405518 489.128540,655.521912 482.925140,661.821045 
	C481.998108,662.762451 480.850006,663.486145 479.234741,664.739075 
M263.513367,445.692352 
	C272.369751,442.791962 281.193817,439.786560 290.099121,437.045013 
	C293.464569,436.009003 294.193298,434.313507 293.081299,431.110352 
	C291.281281,425.925415 289.746002,420.648468 288.101532,415.409576 
	C285.180237,406.103088 282.260834,396.796051 279.362823,387.559998 
	C276.153320,387.794403 274.317749,389.297943 272.704926,390.904297 
	C263.856903,399.716431 255.107574,408.627594 246.297394,417.477844 
	C244.573776,419.209259 243.801712,420.667267 245.779251,422.962402 
	C251.285446,429.352722 257.196747,435.537933 258.891968,444.316803 
	C259.328522,446.577606 261.032562,446.511932 263.513367,445.692352 
M416.958221,223.465881 
	C419.293762,226.711349 421.642212,229.947632 423.959961,233.205750 
	C425.330109,235.131775 427.127716,236.138474 429.514862,235.846405 
	C436.780945,234.957382 444.043396,234.038971 451.307404,233.132828 
	C454.016357,232.794922 454.882721,231.514771 454.301666,228.678772 
	C451.729584,216.124146 449.205536,203.555176 446.999207,190.932816 
	C446.318573,187.039017 444.414886,185.467529 440.942291,186.421539 
	C432.916870,188.626389 424.756775,187.996155 416.633026,188.022705 
	C412.955353,188.034729 412.092743,189.715424 412.381378,192.998566 
	C413.066803,200.794647 413.623260,208.603119 414.131836,216.413101 
	C414.290192,218.844437 415.056061,220.955521 416.958221,223.465881 
M621.137085,166.460022 
	C614.426819,165.257278 607.719055,164.039993 601.005371,162.856720 
	C596.246704,162.018005 595.148071,163.066528 596.217712,167.786133 
	C597.982239,175.572189 599.984131,183.304428 601.750061,191.090164 
	C602.459534,194.217972 604.343323,195.839066 607.252686,196.889221 
	C615.863525,199.997421 624.409302,203.285599 632.988037,206.483368 
	C634.813538,207.163864 636.552551,208.378174 638.879639,207.554581 
	C643.886536,197.703186 647.042419,187.118607 649.866821,176.368423 
	C650.814331,172.762207 649.979126,171.537903 646.561340,170.978912 
	C638.351501,169.636139 630.172485,168.105118 621.137085,166.460022 
M270.930450,859.647461 
	C271.681152,859.997192 272.428741,860.644043 273.183014,860.651917 
	C283.328400,860.758545 293.474731,860.791870 303.620850,860.801819 
	C305.614594,860.803772 306.517181,859.491577 306.970490,857.704468 
	C309.300751,848.518127 311.637543,839.333435 314.017395,830.159912 
	C314.378784,828.766846 314.571106,827.472778 313.157532,826.630615 
	C303.915222,821.124512 294.653870,815.650330 284.413025,809.581604 
	C282.087250,819.278809 275.805206,826.107300 272.718445,834.447510 
	C269.808624,842.309692 267.429657,850.545654 270.930450,859.647461 
M546.597290,724.913879 
	C539.882629,722.435181 533.689514,725.588989 527.340576,726.811096 
	C526.148254,727.040649 526.299011,728.747314 526.199280,729.890930 
	C525.232056,740.975525 524.129028,752.051331 523.395996,763.151550 
	C523.143005,766.983337 522.452881,770.960999 523.971802,775.595276 
	C541.965698,767.382202 560.229431,760.656189 576.037476,747.780212 
	C566.754883,739.436218 556.544922,732.910217 546.597290,724.913879 
M313.359009,781.235962 
	C308.056091,779.490784 302.753174,777.745605 297.266876,775.940063 
	C293.673431,785.680969 291.710693,795.358459 287.492432,804.233826 
	C286.369476,806.596497 287.976532,807.598877 289.563263,808.570618 
	C294.534973,811.615173 299.976898,814.076172 304.430695,817.742310 
	C312.664520,824.520020 319.116608,823.462585 327.957306,817.475220 
	C336.165680,811.916199 339.547211,806.645813 338.165833,797.009338 
	C337.411682,791.748535 335.438599,788.800720 330.615875,787.221130 
	C325.078918,785.407532 319.608490,783.390930 313.359009,781.235962 
M286.912079,289.603546 
	C287.204895,290.171844 287.365997,290.886078 287.809967,291.286987 
	C297.244659,299.806549 307.431061,307.151337 319.365784,311.885345 
	C322.373138,313.078278 323.908356,312.400818 325.204346,309.537262 
	C329.935486,299.083588 334.734955,288.658417 339.704742,278.316711 
	C341.159760,275.288910 340.283783,273.828278 337.535736,272.461243 
	C329.942200,268.683746 322.386963,264.821808 314.919800,260.801453 
	C312.084991,259.275208 310.156860,259.788849 308.808289,262.523865 
	C303.623871,273.038574 294.984924,280.712006 286.912079,289.603546 
M337.346344,814.932861 
	C332.574158,817.955933 327.837585,821.037292 323.018005,823.982788 
	C319.416016,826.184204 317.358398,829.144531 316.488342,833.401123 
	C315.026215,840.554138 312.979980,847.587585 311.190308,854.674011 
	C310.717529,856.546082 309.602875,858.362976 310.857269,860.985046 
	C330.060425,861.427124 348.146698,856.778625 365.374725,848.014038 
	C365.123291,847.134216 365.113007,846.579224 364.841492,846.223633 
	C357.176056,836.183472 349.482056,826.165100 341.799652,816.137878 
	C340.821259,814.860779 339.718872,813.965576 337.346344,814.932861 
M446.853394,740.157349 
	C448.922821,740.812561 450.712158,740.572937 452.284454,738.861267 
	C459.364960,731.152954 466.459229,723.456421 473.635864,715.837952 
	C475.343262,714.025452 475.452454,712.559021 473.783936,710.702637 
	C467.340088,703.533325 460.903351,696.355591 454.592743,689.069519 
	C452.381042,686.515930 450.761597,686.715698 448.602936,689.143494 
	C442.752106,695.723877 436.971283,702.399109 430.678345,708.540405 
	C427.395233,711.744385 426.579590,714.999634 427.308105,719.180603 
	C428.134521,723.923340 428.831848,728.690369 429.491119,733.459839 
	C429.849976,736.055847 430.852112,737.663452 433.776093,737.987915 
	C437.895355,738.445129 441.970428,739.300415 446.853394,740.157349 
M408.356934,749.845032 
	C415.200806,748.410706 419.859985,743.406311 425.192474,739.511658 
	C426.779480,738.352600 426.551086,736.724731 426.259308,734.984863 
	C425.379913,729.741211 424.140808,724.484009 424.011963,719.208374 
	C423.871979,713.475830 420.767792,711.268616 415.938904,710.242493 
	C407.489899,708.447083 399.031982,706.693298 390.574860,704.936340 
	C383.761261,703.520996 380.011932,707.444336 381.765472,714.259094 
	C383.959686,722.786194 386.827728,731.185120 388.357849,739.824829 
	C389.811951,748.035156 399.619751,754.709839 408.356934,749.845032 
M577.659729,534.089600 
	C583.963440,530.722595 590.250671,527.324280 596.580017,524.006226 
	C598.674316,522.908325 600.322937,521.942322 598.794495,519.095093 
	C594.954041,511.940857 591.639771,504.424011 586.162964,498.338470 
	C582.565674,494.341431 581.339539,488.406616 575.894958,485.693237 
	C565.190186,494.973114 553.353699,503.009247 549.195190,517.690369 
	C548.345886,520.688843 548.276794,522.606323 550.896729,524.553894 
	C554.627747,527.327454 558.115601,530.425720 561.753906,533.326965 
	C568.946777,539.062744 568.960022,539.046143 577.659729,534.089600 
M449.247772,499.548523 
	C456.755951,499.401794 464.072296,497.774689 471.455688,496.666687 
	C478.461426,495.615326 482.912292,490.168060 488.298706,486.470215 
	C491.653259,484.167297 489.874176,479.610168 490.052582,476.075714 
	C490.825806,460.756592 490.745148,460.752533 477.503632,452.943909 
	C473.325073,450.479797 466.305786,451.720581 463.737549,455.763916 
	C456.869629,466.576660 450.215576,477.525085 443.447021,488.401184 
	C442.029266,490.679352 441.969116,492.707184 444.025330,494.658295 
	C445.584961,496.138245 447.040894,497.727417 449.247772,499.548523 
M335.515869,224.107727 
	C331.323975,223.042404 327.079529,222.145920 322.955780,220.861755 
	C319.227844,219.700836 318.191803,221.084579 318.210297,224.630615 
	C318.265869,235.286636 317.306763,245.826004 313.492249,256.391510 
	C323.048187,261.322998 332.474579,266.209656 341.938171,271.023193 
	C342.587219,271.353302 343.579681,271.353668 344.301300,271.137085 
	C347.838684,270.075592 353.455627,262.752655 353.646301,259.049255 
	C354.099762,250.242920 354.399750,241.425827 355.044342,232.633820 
	C355.246918,229.871048 354.447144,228.754395 351.807312,228.174530 
	C346.609497,227.032791 341.478668,225.585999 335.515869,224.107727 
M345.835480,449.497864 
	C349.323181,445.365936 350.708557,440.015045 353.688324,435.659668 
	C356.919586,430.936707 355.523651,428.213531 351.810425,424.451752 
	C346.150421,418.717712 340.224915,414.238678 332.065857,413.006561 
	C328.973694,412.539612 325.877808,411.560669 323.003906,410.309204 
	C318.556335,408.372498 316.269012,409.930298 314.682526,414.153381 
	C313.400970,417.564758 311.616028,420.790283 310.005707,424.074402 
	C303.986877,436.349365 303.979401,436.345642 313.727051,445.874542 
	C321.481781,453.455261 336.405792,455.427917 345.835480,449.497864 
M226.779190,371.147980 
	C227.589493,370.958344 228.401642,370.776245 229.209808,370.577942 
	C247.408218,366.112549 247.399185,366.109436 252.952988,348.248718 
	C253.405823,346.792389 253.944687,345.362427 253.262573,343.889435 
	C249.995819,336.835175 246.690445,329.798828 243.351852,322.655701 
	C241.959763,323.069733 241.092636,323.150482 240.419403,323.554413 
	C230.317795,329.615112 220.601028,336.364594 209.415497,340.456177 
	C206.972290,341.349884 207.201797,343.384918 207.775421,345.496185 
	C209.389618,351.437561 210.926331,357.400116 212.471375,363.360138 
	C215.248215,374.071838 215.241440,374.073608 226.779190,371.147980 
M445.052917,500.736023 
	C444.384460,499.996796 443.728180,499.246155 443.045593,498.520203 
	C437.515503,492.638824 437.031311,492.478821 429.754120,495.490143 
	C423.924225,497.902557 418.200867,500.575195 412.348541,502.929382 
	C409.492310,504.078339 408.434296,505.871704 408.188873,508.932739 
	C407.672546,515.372620 406.683044,521.775085 405.867126,528.190308 
	C405.063446,534.509277 410.557129,539.829224 417.019135,538.993896 
	C425.412140,537.908813 433.790619,536.661621 442.211426,535.865845 
	C445.621460,535.543701 446.826569,534.317078 446.762451,530.955261 
	C446.600983,522.485962 446.687531,514.011963 446.679840,505.539825 
	C446.678436,504.030518 446.647827,502.535522 445.052917,500.736023 
M576.379333,699.261292 
	C571.465881,698.412598 566.527161,697.685181 561.649292,696.666199 
	C559.040344,696.121277 557.589539,696.910706 556.592590,699.312317 
	C553.980042,705.605896 551.315125,711.880005 548.523682,718.095703 
	C547.546509,720.271545 547.766968,721.758850 549.727905,723.227722 
	C558.509216,729.805725 567.261108,736.424622 575.944458,743.131226 
	C578.771484,745.314758 581.229614,744.690613 582.566345,741.918762 
	C587.966370,730.721069 593.348816,719.506592 597.069214,707.579407 
	C598.233582,703.846375 596.513977,702.845764 593.403992,702.316833 
	C588.003906,701.398621 582.626831,700.345459 576.379333,699.261292 
M467.435883,607.844421 
	C466.201019,608.322510 464.642944,608.476440 463.784607,609.332153 
	C458.835480,614.266296 454.469513,619.737610 450.687683,625.588257 
	C448.954010,628.270264 450.497192,630.448303 453.277283,632.043884 
	C461.068237,636.515259 468.766754,641.151733 476.433563,645.834717 
	C488.751923,653.359070 488.633972,653.333130 496.517120,641.609924 
	C498.664429,638.416687 499.257690,635.501709 498.071991,631.817932 
	C495.423126,623.588318 493.005035,615.280945 490.673187,606.954651 
	C489.809418,603.870544 488.274048,603.220398 485.189636,603.766174 
	C479.448822,604.782166 473.789825,606.063110 467.435883,607.844421 
M393.534576,343.071869 
	C385.402893,338.973785 377.271210,334.875702 368.548706,330.479858 
	C366.597443,341.182800 366.027496,351.253540 365.439117,361.315582 
	C365.323944,363.285400 367.205383,363.989166 368.492462,364.977234 
	C376.550476,371.163269 384.624939,377.327881 392.692139,383.501953 
	C396.937103,386.750702 400.849335,385.635071 402.581268,380.339600 
	C405.271240,372.114594 407.586700,363.767487 410.242188,355.530579 
	C411.179016,352.624756 410.094910,351.268250 407.598572,350.100952 
	C403.076508,347.986267 398.663116,345.639160 393.534576,343.071869 
M481.274567,517.141785 
	C479.617126,512.433167 477.899719,507.744446 476.329346,503.007019 
	C475.621460,500.871490 474.771912,499.551483 472.105469,500.030396 
	C465.888336,501.147064 459.632355,502.054413 453.380554,502.967499 
	C450.923431,503.326355 450.024170,504.693146 450.048462,507.060608 
	C450.140778,516.050110 449.960388,525.048035 450.293152,534.027527 
	C450.521362,540.186096 458.757599,547.556396 464.893951,547.673462 
	C470.220490,547.775085 475.547882,547.961731 480.873871,547.931702 
	C486.704102,547.898926 490.673004,542.020081 488.636505,536.536926 
	C486.319336,530.298096 483.919495,524.090027 481.274567,517.141785 
M297.110199,538.588440 
	C291.179077,544.874023 285.322205,551.232361 279.276825,557.406128 
	C277.144348,559.583801 277.044342,561.187927 279.429932,563.096313 
	C282.204010,565.315491 283.869659,568.427002 285.835205,571.314087 
	C290.575378,578.276489 295.465912,585.136475 300.587646,592.454773 
	C307.255280,588.001770 313.459595,583.581421 319.950256,579.631653 
	C323.591583,577.415771 323.933075,575.198914 322.302185,571.456543 
	C317.855865,561.253540 313.720215,550.911926 309.617249,540.563477 
	C306.752502,533.338074 303.138885,532.517700 297.110199,538.588440 
M431.637817,577.081421 
	C437.183594,575.648132 441.550446,572.779663 444.450073,567.604980 
	C446.230164,564.428284 448.773834,561.689697 450.813110,558.646118 
	C457.749939,548.293091 457.280212,551.037415 449.452637,540.532837 
	C448.354187,539.058716 447.031738,538.539001 445.128082,538.800171 
	C435.897064,540.066650 426.646820,541.192444 417.406311,542.390442 
	C415.247955,542.670166 413.688660,543.614136 413.257294,546.008728 
	C411.341980,556.640991 408.150177,567.054443 408.016266,577.990601 
	C407.956421,582.875427 410.103760,584.628784 414.897736,583.032166 
	C420.270325,581.242920 425.578522,579.260315 431.637817,577.081421 
M598.240479,679.149414 
	C599.968811,680.000488 601.263245,681.767456 604.451965,681.684326 
	C605.300903,667.234558 610.357056,653.503723 612.062866,639.059937 
	C612.565857,634.801697 610.990112,633.771912 607.482605,633.394775 
	C600.535706,632.647705 593.568848,631.989868 586.675293,630.887939 
	C583.593567,630.395325 582.118713,631.492004 580.721619,633.951233 
	C576.940552,640.606812 573.127808,647.255432 569.006531,653.701599 
	C567.086060,656.705444 567.714661,658.307800 570.466919,660.145874 
	C579.601013,666.246033 588.616760,672.523499 598.240479,679.149414 
M324.499420,339.049500 
	C322.658356,342.783051 323.020569,346.377380 324.927185,350.016296 
	C327.700134,355.308716 330.523102,360.593079 332.918579,366.058868 
	C334.561066,369.806519 337.155548,370.544617 340.548157,369.447998 
	C346.709167,367.456543 352.800934,365.250488 358.918243,363.124329 
	C360.405060,362.607574 361.622681,361.802032 361.794830,360.053802 
	C362.769989,350.150055 363.753296,340.247101 364.697876,330.340393 
	C364.933899,327.864868 363.907593,326.807556 361.231842,326.809723 
	C355.091614,326.814667 348.952179,326.397400 342.810547,326.333374 
	C329.727997,326.196991 329.727509,326.244385 324.499420,339.049500 
M565.022217,137.644943 
	C566.385559,133.713074 567.253113,129.511826 569.213257,125.904266 
	C573.573792,117.879082 571.623291,111.693314 565.381836,105.605148 
	C562.452637,102.747856 560.979736,102.820999 558.173889,105.423599 
	C550.126099,112.888489 541.977051,120.238373 533.297485,127.010506 
	C530.002075,129.581757 525.999268,131.639786 523.494507,135.973618 
	C528.556702,141.305145 533.803650,146.410721 538.529663,151.960037 
	C541.558716,155.516708 544.889526,155.631226 549.148010,155.498795 
	C557.858154,155.227921 562.536133,151.306351 563.484924,142.690842 
	C563.645935,141.228607 564.322327,139.823120 565.022217,137.644943 
M370.102997,327.545563 
	C383.017242,334.072754 395.931488,340.600037 408.845764,347.127167 
	C410.936401,348.183807 412.914673,349.464630 415.035248,346.945801 
	C417.711334,343.767120 420.598083,340.764465 423.425964,337.715546 
	C425.071075,335.941803 425.142120,334.275848 423.416779,332.487213 
	C413.946136,322.669189 404.484680,312.842194 395.060638,302.979492 
	C393.127350,300.956207 391.164490,300.759674 388.839569,302.225159 
	C385.322144,304.442352 381.859192,306.781067 378.181488,308.701080 
	C371.891418,311.984863 370.778992,318.626282 367.817810,324.059875 
	C366.997955,325.564301 368.292358,326.483032 370.102997,327.545563 
M399.507629,188.080093 
	C395.317108,188.332535 391.188049,187.821838 387.155884,186.766403 
	C383.837555,185.897812 381.852509,186.588867 380.881683,190.215012 
	C378.389404,199.523666 375.700439,208.781525 372.946625,218.016922 
	C372.298431,220.190659 373.169159,221.455795 374.573853,222.797226 
	C379.382385,227.389297 384.211945,231.962814 388.898712,236.677353 
	C391.095520,238.887146 392.613739,237.902588 394.321259,236.163559 
	C398.748932,231.654221 403.129883,227.091232 407.726654,222.758896 
	C410.144928,220.479736 410.954865,217.964066 410.692902,214.746750 
	C410.207489,208.785065 409.913147,202.806915 409.598633,196.832474 
	C409.141083,188.141327 409.163513,188.140152 399.507629,188.080093 
M418.100494,464.318665 
	C414.964111,458.943848 412.259430,453.281677 407.940552,448.088165 
	C405.008118,451.175629 402.714722,454.047516 399.970276,456.391235 
	C392.743195,462.563019 390.487579,471.468170 386.769714,479.576263 
	C385.760345,481.777557 386.435760,484.458282 387.618164,485.769257 
	C392.345154,491.010132 396.241608,497.288330 403.208801,500.082825 
	C404.411560,500.565155 405.903412,501.089752 407.061707,500.798737 
	C416.084534,498.531433 424.073120,493.840851 433.313568,490.386017 
	C428.011200,481.283630 423.250366,473.110870 418.100494,464.318665 
M502.527130,264.948608 
	C508.124390,262.494141 513.721680,260.039703 520.145203,257.222931 
	C515.002625,250.502731 510.206970,244.399231 505.608521,238.150574 
	C503.623444,235.453064 501.424103,234.897476 498.267090,235.791565 
	C489.147217,238.374374 480.000336,240.888290 470.781342,243.081512 
	C467.085297,243.960800 465.485138,246.012482 466.106598,249.396500 
	C467.834320,258.804443 469.869141,268.156006 471.925110,278.227509 
	C482.420288,273.681030 492.127167,269.476013 502.527130,264.948608 
M289.830200,440.414154 
	C280.403961,443.561768 270.977753,446.709381 261.347717,449.925049 
	C262.541992,454.913788 262.272491,459.553009 262.270233,464.180420 
	C262.263062,478.728241 262.268616,478.682007 276.619385,481.529297 
	C279.684784,482.137512 282.055756,481.638519 284.199463,479.205322 
	C290.578217,471.965210 297.108398,464.858704 303.551910,457.675293 
	C306.188171,454.736267 308.753845,451.733856 311.269257,448.854584 
	C303.431885,437.728149 301.390625,436.900238 289.830200,440.414154 
M535.252991,426.807220 
	C533.524841,425.260437 532.615601,426.795837 531.564819,427.788971 
	C522.145813,436.691254 512.714844,445.580994 503.326996,454.515930 
	C502.294434,455.498688 500.850342,456.296387 500.870422,458.720734 
	C509.954224,463.229919 519.278076,467.874176 528.622925,472.475616 
	C529.714233,473.013062 530.950928,472.946838 531.983276,472.281769 
	C540.173889,467.005341 548.341675,461.693604 556.955811,456.107880 
	C549.672180,446.091553 543.850037,435.836548 535.252991,426.807220 
M644.064453,93.599953 
	C638.672791,98.022484 633.299866,102.468224 627.879089,106.854813 
	C626.021729,108.357819 625.335022,109.941513 625.928650,112.465240 
	C627.865479,120.699608 629.575195,128.989609 631.232239,137.286194 
	C631.720032,139.728653 633.035217,141.030853 635.304932,141.757645 
	C640.679626,143.478668 646.047852,145.226517 651.372070,147.096313 
	C654.012512,148.023605 655.779541,147.366806 656.048096,144.574493 
	C656.538757,139.474213 657.826965,134.490250 658.412598,129.458374 
	C659.712280,118.292366 657.751953,107.302200 654.766785,96.530983 
	C652.578125,88.633751 650.776184,88.090919 644.064453,93.599953 
M547.456970,712.039551 
	C549.486206,707.300232 551.409912,702.511597 553.590088,697.842712 
	C554.650085,695.572693 554.471924,693.814392 552.839294,691.943115 
	C550.106140,688.810486 547.464722,685.593750 544.881897,682.335388 
	C543.483276,680.570862 541.788635,680.095520 539.620789,680.264282 
	C530.618652,680.965027 522.732605,685.034790 514.614868,688.409424 
	C513.314087,688.950195 512.665894,690.114868 512.022217,691.318665 
	C508.493866,697.917114 506.889282,704.236023 513.866272,709.845215 
	C515.392700,711.072449 516.817749,712.682556 517.695435,714.416931 
	C522.068298,723.058472 528.875244,723.391907 537.344666,721.544373 
	C542.838928,720.345886 546.002869,718.055542 547.456970,712.039551 
M313.992340,718.751953 
	C322.051575,720.828613 330.129608,722.836243 338.157959,725.026062 
	C340.425934,725.644653 342.025055,724.840027 343.634674,723.535950 
	C348.811615,719.341309 353.936951,715.079773 359.202301,710.998962 
	C361.527191,709.197205 361.835144,707.565613 360.089600,705.147949 
	C356.774292,700.556152 353.656525,695.821045 350.489838,691.123169 
	C349.289886,689.342957 347.783447,688.291260 345.535522,688.318665 
	C337.041138,688.421875 328.541290,688.106689 320.057434,688.899414 
	C317.668304,689.122620 316.543365,690.016113 316.311890,692.540894 
	C315.918243,696.834229 314.731537,701.086853 314.662872,705.369141 
	C314.591888,709.794983 311.706268,713.886963 313.992340,718.751953 
M253.840775,518.460449 
	C252.507416,522.915222 250.938477,527.315735 249.898117,531.837891 
	C248.479065,538.006287 247.200592,544.092407 253.259491,549.142334 
	C258.982208,553.912109 266.158569,554.820251 272.645203,557.529053 
	C273.922760,558.062500 275.060272,556.710815 275.991516,555.735291 
	C282.655396,548.754578 289.396332,541.845215 295.952942,534.765198 
	C299.271545,531.181641 298.651306,528.510803 294.090759,527.016235 
	C282.397980,523.184204 270.623413,519.602173 258.892181,515.886658 
	C256.734863,515.203430 254.925980,515.122803 253.840775,518.460449 
M442.303223,640.802917 
	C440.181030,644.227234 435.796967,646.480103 436.435608,651.335632 
	C437.804749,661.745483 439.353058,671.906677 448.375427,679.345520 
	C451.601349,682.005310 453.142059,682.884766 456.444092,679.955017 
	C464.402161,672.894165 472.676514,666.190491 480.787811,659.300964 
	C482.123871,658.166199 483.942139,657.340332 484.094910,655.237000 
	C483.283386,653.556335 481.652985,652.955017 480.261078,652.109436 
	C472.444244,647.360901 464.611359,642.638428 456.764832,637.938904 
	C448.780609,633.157043 448.770905,633.173218 442.303223,640.802917 
M572.812744,665.727234 
	C567.322021,660.412537 561.523315,659.374695 555.279480,664.460022 
	C555.153076,664.562866 554.988037,664.618896 554.839478,664.693848 
	C546.057190,669.129089 544.376709,676.806824 550.601501,684.013489 
	C551.579651,685.145996 552.605957,686.253601 553.448547,687.483337 
	C556.055054,691.287292 559.589294,693.073853 564.192200,693.778259 
	C573.878235,695.260559 583.485657,697.258667 593.122314,699.061279 
	C596.006104,699.600708 598.704529,700.868835 600.341125,696.550110 
	C603.337280,688.643433 603.515930,686.558960 599.429016,683.761719 
	C590.783569,677.844421 582.083618,672.006775 572.812744,665.727234 
M327.480927,658.813171 
	C335.388824,659.798462 343.289246,660.849792 351.207336,661.745056 
	C356.233246,662.313293 365.566071,655.846741 366.952332,651.059082 
	C367.332886,649.744873 366.633331,648.855286 365.983795,647.880981 
	C362.297516,642.351685 358.516235,636.880615 355.009247,631.239258 
	C353.243103,628.398254 351.193298,627.568542 347.958801,628.360046 
	C341.348297,629.977783 334.669830,631.318848 328.015289,632.754944 
	C316.388794,635.263794 316.387512,635.257812 316.343903,646.930908 
	C316.305359,657.246338 316.305359,657.246338 327.480927,658.813171 
M480.373199,406.917023 
	C484.228760,401.096405 488.076691,395.270752 491.944489,389.458282 
	C493.088867,387.738464 494.414337,385.998322 491.868591,384.415100 
	C488.975189,382.615662 486.986023,379.899872 484.773407,377.446625 
	C482.697296,375.144714 480.838379,375.070465 478.258362,376.603760 
	C470.110260,381.446167 461.832123,386.069031 453.641266,390.840332 
	C443.268829,396.882355 443.426147,396.889923 445.041168,408.716125 
	C445.470245,411.858124 446.662811,413.424194 449.631439,414.248535 
	C456.358093,416.116516 463.048096,418.128082 469.699707,420.248535 
	C472.113525,421.018066 473.347046,420.337128 474.401001,418.124817 
	C476.114929,414.526978 478.117950,411.066772 480.373199,406.917023 
M438.840149,489.149048 
	C446.412994,477.073120 453.985870,464.997192 461.848572,452.459106 
	C453.764801,447.691437 446.209106,443.211761 438.624878,438.780945 
	C437.001007,437.832214 435.396515,438.539062 433.831390,439.153351 
	C428.254364,441.342224 422.714569,443.634888 417.081055,445.667816 
	C413.265747,447.044586 412.777283,448.860443 414.881531,452.357300 
	C421.747223,463.766785 428.344055,475.338104 435.034180,486.853088 
	C435.779663,488.136230 436.277740,489.681549 438.840149,489.149048 
M598.387573,190.749496 
	C596.746399,183.971817 595.152771,177.181992 593.427490,170.425797 
	C593.040344,168.909622 592.960571,167.099854 590.961060,166.417648 
	C587.693237,165.302689 579.399780,167.441254 577.267090,170.157639 
	C569.985962,179.431808 562.871399,188.840515 555.422058,197.976761 
	C552.825256,201.161697 553.752319,202.994308 556.738098,204.578812 
	C561.578430,207.147476 566.572937,209.430801 571.366272,212.080719 
	C573.810242,213.431885 575.605103,212.968689 577.697937,211.424210 
	C583.843750,206.888641 590.005859,202.360199 596.366455,198.137512 
	C599.113037,196.314102 599.716736,194.333038 598.387573,190.749496 
M486.073730,554.308716 
	C484.841461,551.925781 482.770294,551.334045 480.249481,551.326721 
	C474.767181,551.310791 469.285583,551.068115 463.803284,551.051758 
	C458.088074,551.034729 456.535156,553.232361 458.702057,558.452332 
	C463.857788,570.872314 469.078369,583.266418 474.417938,595.608154 
	C475.398804,597.875366 475.505249,601.863770 478.849335,601.418823 
	C483.346924,600.820435 488.818787,602.189453 491.888733,597.029053 
	C493.066956,595.048523 495.254669,593.253540 494.841522,590.864624 
	C492.743530,578.733643 493.766876,565.853577 486.073730,554.308716 
M467.918945,275.545715 
	C466.019012,267.760254 465.061218,259.722778 462.169403,251.750549 
	C452.325653,258.311127 442.826904,264.081940 434.103088,271.089478 
	C430.253204,274.181976 429.974640,276.861725 432.089294,280.815765 
	C435.877136,287.898682 440.792236,294.185669 445.513458,300.621582 
	C447.113739,302.803101 448.930237,302.949951 451.143951,301.749115 
	C456.115570,299.052155 461.098663,296.376251 466.086853,293.709961 
	C467.865997,292.758972 468.770294,291.346191 468.775574,289.295288 
	C468.786682,284.981262 469.357422,280.643188 467.918945,275.545715 
M526.461060,610.015930 
	C524.730286,607.782959 522.729919,605.707153 521.319458,603.287476 
	C517.110229,596.066528 511.092560,593.269653 502.736572,593.969299 
	C496.385986,594.501038 492.027466,599.456055 493.782837,605.654785 
	C496.226135,614.282837 498.903778,622.845581 501.267242,631.494629 
	C502.127625,634.643311 503.880615,635.418274 506.969879,635.712585 
	C515.427429,636.518555 523.016357,633.314514 530.749390,630.995483 
	C536.010132,629.417786 537.265442,623.878784 533.936401,619.630798 
	C531.578979,616.622620 529.243530,613.597168 526.461060,610.015930 
M302.665833,757.974854 
	C301.563110,761.464966 300.577667,764.997925 299.321472,768.431885 
	C298.267944,771.311829 298.664673,773.006897 301.906769,774.057068 
	C311.571472,777.187927 321.182953,780.491638 330.748871,783.913330 
	C333.492920,784.894897 334.634918,784.027466 335.596710,781.539673 
	C337.638000,776.259705 339.736694,770.986450 342.159515,765.875183 
	C343.696228,762.633301 342.942383,760.808105 340.032867,758.918884 
	C330.810699,752.930786 321.749146,746.695679 312.602264,740.590820 
	C311.259827,739.694946 309.951935,738.500000 307.669678,739.161926 
	C305.187775,744.790833 304.251465,751.048096 302.665833,757.974854 
M330.580261,306.012756 
	C329.635071,307.959839 328.671844,309.898438 327.747986,311.855591 
	C324.878052,317.935364 327.912659,322.825378 334.654602,322.903259 
	C341.815399,322.986023 349.060638,322.324493 356.114075,323.214996 
	C362.621826,324.036621 365.664764,321.664337 368.135071,316.013855 
	C369.881348,312.019501 370.354645,309.176086 367.206543,305.765900 
	C364.173401,302.480316 361.780884,298.608734 359.046509,295.040924 
	C354.333435,288.891235 349.573517,282.777496 344.861481,276.685120 
	C344.046783,277.240295 343.645142,277.362061 343.529785,277.614563 
	C339.310303,286.849304 335.117371,296.096191 330.580261,306.012756 
M366.315765,450.084839 
	C370.730469,451.550110 375.160431,452.971130 379.557007,454.488892 
	C392.927307,459.104645 392.876373,459.074860 402.630493,448.978607 
	C404.544800,446.997162 405.052185,445.357361 403.571411,442.886932 
	C399.470093,436.044464 395.471466,429.136932 391.602386,422.160767 
	C390.192993,419.619507 388.422302,419.709106 386.179291,420.562836 
	C380.432770,422.749969 374.826874,425.621887 368.880981,426.899719 
	C358.726288,429.082001 356.437225,437.102051 353.258331,445.028229 
	C357.234039,447.642822 361.567810,448.319946 366.315765,450.084839 
M313.086304,488.924408 
	C309.538757,490.345123 306.012390,491.822235 302.435669,493.165222 
	C300.311066,493.962982 299.271423,495.258179 299.244171,497.616547 
	C299.136475,506.934601 299.422302,516.241211 300.201874,525.519348 
	C300.610565,530.383057 304.582733,533.199341 309.039612,531.276794 
	C319.585968,526.727478 331.045715,523.610291 337.536102,512.481384 
	C339.571960,508.990570 339.894714,506.974182 336.805695,504.585876 
	C330.361298,499.603424 323.919250,494.617828 317.464172,489.649231 
	C316.385468,488.818939 315.206757,488.217529 313.086304,488.924408 
M258.409027,500.703613 
	C257.629242,504.072968 255.940704,507.243591 256.128174,511.528564 
	C269.042114,515.492493 282.088104,519.496948 295.691010,523.672302 
	C295.691010,513.881653 295.697235,505.097198 295.683929,496.312775 
	C295.682037,495.072266 295.152496,494.071930 294.095459,493.369995 
	C284.387360,486.922821 273.747467,483.203094 261.912476,481.986450 
	C260.642914,488.197876 260.469818,494.220917 258.409027,500.703613 
M543.960876,468.509491 
	C534.058899,473.257751 527.289612,480.694580 523.986450,491.794769 
	C533.220154,494.617218 542.280090,497.333893 551.298706,500.181488 
	C553.475708,500.868835 554.785583,499.752716 556.169067,498.534332 
	C561.166565,494.133026 566.093384,489.648895 571.169373,485.340363 
	C573.522583,483.342957 573.600830,481.635376 572.031677,478.954803 
	C568.417786,472.781281 563.440186,467.497375 560.508301,460.884613 
	C559.511292,458.635925 557.808899,459.623322 556.339050,460.565094 
	C552.414124,463.079926 548.495789,465.604919 543.960876,468.509491 
M413.262787,589.213013 
	C413.661041,593.147034 411.946533,597.475891 416.372955,600.520203 
	C425.947845,607.105286 435.365723,613.921021 444.775513,620.742188 
	C446.936066,622.308350 448.476776,622.425537 450.183105,620.142639 
	C452.666290,616.820312 455.256042,613.562073 458.011108,610.463928 
	C459.943665,608.290649 459.656799,606.542603 458.113007,604.299744 
	C452.840637,596.639771 447.659088,588.914001 442.611664,581.104248 
	C440.912628,578.475281 439.359467,577.545227 436.147308,578.897644 
	C430.497070,581.276794 424.598389,583.063293 418.816406,585.133362 
	C416.804810,585.853516 414.639221,586.367798 413.262787,589.213013 
M555.348206,621.050049 
	C562.907227,622.531921 570.466248,624.013794 577.752502,625.442200 
	C578.838867,623.688171 578.393677,622.559814 578.207886,621.426880 
	C576.434509,610.614502 574.176758,599.850342 573.080139,588.969360 
	C572.376221,581.985291 569.776733,577.796387 563.058350,575.445435 
	C556.801270,573.255981 553.632324,574.573975 552.471130,581.184082 
	C550.747559,590.995972 549.055969,600.813416 547.316345,610.622375 
	C545.627747,620.144043 544.919312,619.008484 555.348206,621.050049 
M266.799225,349.667023 
	C269.522186,351.277710 272.165771,353.049377 274.995209,354.444031 
	C276.968689,355.416779 279.080597,358.914764 281.322144,355.821594 
	C283.678558,352.569946 288.986847,350.577393 286.333191,344.644775 
	C280.896820,332.491089 275.887207,320.146881 270.647095,307.904572 
	C270.091400,306.606262 269.798889,304.933990 267.836823,304.611511 
	C261.751007,308.816437 255.574463,312.999420 249.507095,317.335175 
	C247.972046,318.432068 245.677155,319.746033 246.926880,322.119354 
	C252.137100,332.013947 253.699051,344.539307 266.799225,349.667023 
M360.394409,266.235199 
	C359.062653,266.220856 357.687439,265.983856 356.407227,266.233673 
	C352.486938,266.998779 350.162048,270.172211 348.153809,273.042175 
	C346.380280,275.576752 349.598175,277.438934 350.971100,279.278442 
	C357.148193,287.554596 363.639008,295.598053 369.752777,303.919281 
	C372.026917,307.014496 373.849365,308.176270 377.340424,305.536560 
	C380.507782,303.141632 384.187469,301.429718 387.610992,299.366394 
	C390.662292,297.527496 394.791595,285.174835 393.389862,281.973755 
	C393.076355,281.257843 392.428558,280.586212 391.768646,280.139404 
	C382.395905,273.793671 374.062622,265.129608 360.394409,266.235199 
M552.662354,219.081207 
	C548.393860,230.606567 544.073547,242.113205 539.902283,253.673615 
	C539.101624,255.892502 536.673523,258.353027 540.373474,260.532959 
	C546.594788,264.198364 550.511047,264.632324 553.412842,261.495575 
	C557.135376,257.471771 560.273315,252.715424 564.553772,249.437881 
	C574.644592,241.711380 577.276611,232.142197 573.754333,220.327393 
	C573.336609,218.926147 573.699585,217.117859 572.255676,216.288071 
	C567.291931,213.435562 562.306641,210.588394 556.588318,208.533829 
	C555.241638,212.164185 554.093445,215.259491 552.662354,219.081207 
M361.867065,396.423859 
	C360.393707,396.668884 358.918488,397.131317 357.447327,397.118683 
	C352.777161,397.078674 350.922089,399.511047 348.936279,403.715576 
	C345.213226,411.598389 346.570801,417.201904 353.596100,421.889618 
	C354.544098,422.522217 355.331573,423.452148 356.053101,424.356354 
	C357.883942,426.650787 359.979980,426.906372 362.679352,425.876648 
	C370.282837,422.976227 377.965546,420.284058 385.604004,417.474457 
	C387.151337,416.905304 389.031219,416.418365 389.415741,414.588135 
	C390.969849,407.191132 392.355621,399.758789 393.966339,391.505219 
	C382.940033,393.194550 372.834747,394.742798 361.867065,396.423859 
M533.100830,553.070068 
	C532.129456,547.667664 530.863708,542.296814 530.279785,536.852844 
	C529.813232,532.503784 528.467834,529.694519 523.649231,529.301147 
	C519.755554,528.983337 515.535767,525.465088 512.134033,527.961060 
	C504.427734,533.615479 495.748260,538.169434 489.968536,546.277832 
	C487.672394,549.499146 488.512390,552.013855 490.143860,554.962463 
	C491.758392,557.880493 493.354187,560.137207 497.314758,559.917297 
	C508.110199,559.318176 518.921692,558.983826 529.730286,558.660645 
	C533.162537,558.557983 534.184265,557.008789 533.100830,553.070068 
M409.130920,606.721985 
	C406.982117,609.805603 405.453156,612.920410 406.607117,616.949158 
	C408.852783,624.789490 410.936401,632.681641 412.840424,640.611572 
	C413.548340,643.560120 415.036011,644.860840 417.975342,644.904968 
	C419.632721,644.929810 421.338470,645.031433 422.931946,645.446106 
	C430.058685,647.300659 435.891388,646.290161 439.521881,638.978088 
	C440.532104,636.943420 442.387177,635.317810 443.904510,633.547241 
	C447.840698,628.954163 447.691162,627.067139 442.742554,623.488403 
	C433.970581,617.144653 425.002808,611.062622 416.389008,604.513245 
	C412.915680,601.872437 411.170227,602.832275 409.130920,606.721985 
M338.146515,532.409485 
	C342.798218,540.103149 347.389252,547.834412 352.122925,555.477356 
	C355.282318,560.578491 359.357300,560.427612 362.180542,555.146606 
	C364.770905,550.301270 366.900055,545.184082 369.782074,540.526794 
	C372.804840,535.642151 371.582611,531.710510 368.219269,527.871704 
	C365.257141,524.490845 361.976196,521.361023 359.269043,517.791931 
	C355.562012,512.904480 350.031830,511.657379 344.764526,510.928894 
	C340.968231,510.403870 340.087708,515.503418 337.601044,517.785095 
	C337.358826,518.007385 337.223938,518.351685 336.972534,518.558167 
	C332.694641,522.071411 333.072723,525.791992 336.412872,529.697632 
	C336.948059,530.323425 337.309631,531.097656 338.146515,532.409485 
M506.363464,266.957520 
	C496.909821,271.050537 487.472687,275.182404 477.993286,279.214783 
	C474.826721,280.561798 472.220917,281.770905 472.147064,286.140778 
	C472.072021,290.585175 472.735504,293.728394 477.276611,295.652710 
	C481.229645,297.327820 484.816101,299.856049 488.605743,301.932098 
	C492.317749,303.965546 496.081848,305.903961 500.221436,308.094940 
	C506.871399,292.349365 513.218018,277.321930 520.126770,260.963593 
	C514.850647,263.244415 510.947815,264.931549 506.363464,266.957520 
M527.181946,562.100647 
	C517.697693,562.497925 508.214142,562.912231 498.728790,563.280334 
	C496.374939,563.371765 494.269257,563.501892 494.828949,566.829407 
	C495.986969,573.714233 497.117523,580.604919 498.135284,587.511414 
	C498.461884,589.727905 499.509064,590.531555 501.707855,590.774109 
	C510.002563,591.689331 517.669373,591.158020 524.731079,585.585205 
	C529.781189,581.599792 535.849548,578.910400 541.432739,575.590759 
	C542.800354,574.777588 544.624084,574.410461 545.136780,571.961121 
	C540.141724,567.711609 537.277893,559.724670 527.181946,562.100647 
M374.440643,710.863953 
	C370.531403,710.484863 366.506622,709.163147 362.947083,712.020020 
	C357.507904,716.385437 352.092957,720.781433 346.699738,725.203491 
	C345.567444,726.131836 343.851166,727.202515 344.514709,728.791443 
	C347.008087,734.762146 350.018646,740.492126 353.887299,745.707336 
	C354.240112,746.182922 355.420929,746.136841 356.224243,746.171692 
	C365.200531,746.561707 374.102203,745.395752 383.032135,744.828064 
	C386.037201,744.637085 385.842224,742.655029 385.262329,740.509399 
	C382.966705,732.015381 380.713531,723.509827 378.381592,715.025818 
	C377.909088,713.306580 377.564606,711.343018 374.440643,710.863953 
M540.811890,562.606079 
	C543.187073,565.170471 545.428345,567.877197 547.967712,570.267151 
	C552.143311,574.197083 558.459290,572.277405 559.929199,566.761597 
	C561.856750,559.528320 563.653625,552.257446 565.744202,545.071899 
	C566.513611,542.427429 566.008362,540.727661 563.826355,539.091370 
	C560.100342,536.297241 556.055542,533.702087 553.031433,530.247192 
	C547.514893,523.944763 542.077271,524.534790 535.656921,528.547729 
	C533.227905,530.066040 532.523560,531.283203 533.089172,534.031006 
	C534.563416,541.193726 535.799561,548.409607 536.940369,555.634338 
	C537.353638,558.251831 538.372803,560.364685 540.811890,562.606079 
M350.150513,588.405090 
	C352.822540,593.320007 354.688934,598.685547 358.514496,603.743469 
	C369.678436,596.143555 380.633820,588.685608 392.418549,580.663086 
	C384.183472,575.536743 376.772705,571.419312 369.905396,566.537415 
	C358.310547,558.294861 356.110931,562.586487 349.074219,569.673706 
	C345.341461,573.433228 343.872498,577.064331 347.139008,581.848328 
	C348.335358,583.600464 348.927826,585.765015 350.150513,588.405090 
M591.420959,128.224319 
	C587.539062,122.823784 581.122070,121.353523 575.428284,117.157005 
	C571.353455,129.590027 567.521118,141.235916 563.731018,152.895554 
	C563.117676,154.782547 564.561951,155.619919 565.876038,156.353500 
	C569.800171,158.544174 573.707764,160.774323 577.718933,162.796371 
	C581.240173,164.571426 592.287354,163.731812 593.360291,161.298889 
	C595.821838,155.717285 598.019348,149.788452 596.595947,143.592163 
	C595.447510,138.593048 593.343933,133.813354 591.420959,128.224319 
M387.596375,613.018005 
	C391.399689,612.635254 395.200134,612.220337 399.007568,611.884216 
	C400.752228,611.730225 402.266876,611.262390 403.234497,609.678223 
	C405.139832,606.558960 407.501007,603.622681 408.842041,600.277344 
	C410.682098,595.686951 410.559204,590.695312 408.105591,586.336792 
	C405.837463,582.307861 397.398132,581.273987 393.239136,584.086548 
	C389.659790,586.507080 386.137939,589.012451 382.570862,591.451355 
	C375.709137,596.142944 368.872467,600.872864 361.946503,605.467896 
	C358.636932,607.663635 357.905365,611.201294 358.784332,614.211853 
	C359.652527,617.185486 363.081848,615.549133 365.385803,615.338196 
	C372.497803,614.686951 379.592834,613.850464 387.596375,613.018005 
M576.386475,634.998779 
	C577.117493,633.214050 578.707703,631.771667 578.589844,628.984680 
	C568.265564,627.032715 557.904785,624.901978 547.478943,623.160522 
	C540.024353,621.915405 534.364990,629.313904 537.432312,636.236023 
	C540.926147,644.120544 544.850525,651.813293 548.430481,659.661194 
	C549.635254,662.302307 551.171753,662.394775 553.572205,661.438721 
	C559.732971,658.984802 564.956055,655.810791 567.851929,649.264709 
	C569.982178,644.449402 573.250427,640.137573 576.386475,634.998779 
M395.753998,789.398438 
	C396.776154,779.505188 397.841278,769.616089 398.784363,759.715332 
	C398.973999,757.724609 399.898743,755.491394 397.055298,754.136902 
	C394.208649,752.780823 392.323242,754.001343 390.363525,755.710632 
	C383.106110,762.040466 375.806854,768.322815 368.583038,774.690735 
	C363.673279,779.018738 358.226074,782.783569 353.641510,788.347290 
	C355.946472,788.861450 357.674591,789.325317 359.430664,789.625793 
	C369.574280,791.361694 379.782501,792.782776 389.846497,794.893921 
	C394.407410,795.850586 396.147552,794.852661 395.753998,789.398438 
M441.124939,237.757156 
	C437.335297,238.252563 433.552734,238.815994 429.752808,239.213074 
	C428.001251,239.396118 426.508453,239.864532 425.442657,241.324966 
	C422.110596,245.890854 418.594421,250.336594 415.506012,255.061859 
	C412.757416,259.267242 414.283936,264.492096 418.630157,267.026825 
	C420.639282,268.198547 422.828003,269.080231 424.765656,270.351837 
	C426.920441,271.765930 428.588928,271.571442 430.550903,269.899323 
	C438.925934,262.761719 447.932465,256.422455 457.518860,251.096909 
	C463.624908,247.704788 465.427826,244.088913 458.746826,238.227219 
	C456.776764,236.498779 454.828522,235.969177 452.387268,236.302734 
	C448.931610,236.774902 445.463837,237.158569 441.124939,237.757156 
M341.163330,776.562195 
	C340.163818,779.032776 339.041809,781.462158 338.194336,783.983887 
	C337.007874,787.514343 339.049500,790.001892 342.668549,789.341919 
	C345.771118,788.776245 348.648529,787.765625 351.156616,785.481506 
	C358.051117,779.202637 365.187531,773.189514 372.225922,767.068604 
	C378.325256,761.764404 384.421478,756.456604 390.400391,751.253662 
	C388.798798,748.060425 386.589142,748.143555 384.413818,748.241394 
	C375.598175,748.637817 366.810638,749.682007 357.964874,749.381775 
	C355.069489,749.283447 353.525055,751.050781 352.081848,753.286743 
	C347.527740,760.342468 344.664307,768.176453 341.163330,776.562195 
M618.289246,145.049316 
	C613.830933,145.513443 609.375854,146.012161 604.913513,146.433487 
	C598.505493,147.038498 599.760132,152.519363 598.889160,156.332733 
	C597.971130,160.352173 601.732727,159.581955 603.880005,159.988663 
	C616.110107,162.305130 628.349060,164.583923 640.616272,166.693268 
	C653.512329,168.910751 651.722595,170.732544 654.523010,156.374374 
	C654.617493,155.889648 654.638428,155.381454 654.623962,154.886230 
	C654.571899,153.106766 654.017151,151.438477 652.222107,150.882309 
	C641.456726,147.546661 631.230347,141.121307 618.289246,145.049316 
M479.431793,502.360382 
	C483.701324,513.998413 487.970825,525.636475 492.505890,537.998474 
	C496.561646,535.032349 499.824249,532.211304 503.483704,530.067810 
	C509.591370,526.490295 511.906219,521.886292 509.671234,514.861694 
	C507.538513,508.158478 508.710815,500.633636 501.371948,495.566803 
	C490.518799,488.073608 490.923645,487.589630 480.765656,496.041229 
	C478.775940,497.696747 478.179657,499.349365 479.431793,502.360382 
M515.094238,640.194580 
	C511.611298,638.022400 507.658325,639.148926 503.937958,638.656311 
	C502.474335,638.462585 501.612427,639.665161 500.863190,640.848145 
	C498.635956,644.365051 496.426331,647.897583 494.059296,651.319885 
	C492.308258,653.851501 492.375610,656.031799 494.150238,658.605042 
	C499.444122,666.281189 504.552765,674.085571 509.698578,681.863098 
	C510.961273,683.771484 512.376526,685.668274 514.898926,684.538025 
	C518.756226,682.809448 523.335388,682.394470 526.161255,678.733398 
	C526.441345,678.370422 526.106567,677.450684 525.926819,676.826965 
	C522.470215,664.833862 518.994080,652.846375 515.094238,640.194580 
M520.997986,495.183960 
	C511.219452,499.456360 510.787415,500.194824 512.241821,510.275757 
	C512.502014,512.078796 512.858276,513.869019 513.081360,515.676147 
	C513.563538,519.582458 513.246155,523.846252 518.811523,524.638916 
	C522.878235,525.218079 526.760803,527.923096 530.839783,527.160217 
	C541.109436,525.239502 549.956970,514.513489 550.770020,503.455475 
	C541.124573,500.840942 531.791077,496.884003 520.997986,495.183960 
M434.276184,659.173035 
	C432.174438,649.411377 433.987671,650.582458 423.204651,648.827271 
	C415.588470,647.587463 409.630035,648.985596 404.176361,654.271667 
	C401.817444,656.558167 398.826782,658.186646 396.157257,660.160339 
	C390.555573,664.301880 390.821808,667.245056 397.017670,670.076416 
	C398.527832,670.766541 400.157135,671.289062 401.511383,672.211975 
	C410.054657,678.034241 418.316864,677.557495 427.493103,672.912170 
	C437.744598,667.722473 436.007782,670.209229 434.276184,659.173035 
M554.932495,157.608704 
	C553.950317,157.780228 552.973755,157.998489 551.985168,158.115936 
	C543.750122,159.094269 543.659912,159.231552 543.297913,167.593307 
	C542.945740,175.726410 542.554260,183.858688 542.068787,191.984695 
	C541.879028,195.161896 542.661438,197.214767 546.031677,198.438705 
	C549.460999,199.684097 551.265869,198.554382 553.016846,195.830856 
	C554.448975,193.603302 556.274109,191.629883 557.905334,189.528595 
	C563.880493,181.831573 569.847473,174.128204 576.241211,165.880753 
	C569.019958,162.545914 563.875244,156.625427 554.932495,157.608704 
M294.601227,424.933014 
	C295.286163,426.983948 295.899261,429.062714 296.680023,431.076477 
	C297.248413,432.542572 297.358795,434.595642 299.634644,434.537567 
	C301.479126,434.490540 301.945221,432.822784 302.589539,431.514130 
	C306.411011,423.752502 310.297424,416.020142 313.954224,408.181061 
	C316.273163,403.209930 312.979614,395.405457 307.869141,393.343903 
	C301.698090,390.854492 295.502594,388.422089 289.274292,386.080444 
	C287.223907,385.309570 285.357849,383.507233 282.246185,384.507935 
	C286.333282,397.878540 290.351929,411.025238 294.601227,424.933014 
M375.917023,260.575928 
	C379.253754,255.013168 382.421875,249.338898 385.996704,243.933624 
	C387.848328,241.133896 387.641602,239.274933 385.168213,237.120422 
	C381.407196,233.844269 377.914246,230.261765 374.185760,226.946198 
	C372.346252,225.310394 370.786011,221.904999 367.651703,224.074997 
	C364.090271,226.540695 358.359497,226.824554 358.263947,233.141556 
	C358.168427,239.457825 357.596252,245.765320 357.359833,252.081390 
	C356.967499,262.563477 357.006317,262.606171 367.652618,263.617065 
	C370.546478,263.891846 373.769531,264.825134 375.917023,260.575928 
M376.390869,390.756195 
	C381.560242,389.918335 386.729645,389.080475 391.899017,388.242615 
	C392.034576,387.830627 392.170166,387.418671 392.305756,387.006683 
	C383.031921,380.114532 373.767548,373.209595 364.473602,366.344696 
	C363.155518,365.371094 361.724030,365.612274 360.211975,366.171722 
	C355.071625,368.073700 349.908844,369.921021 344.711334,371.659790 
	C341.926270,372.591522 340.967010,373.892731 342.470520,376.796387 
	C344.836975,381.366577 347.068695,386.025085 349.021423,390.784058 
	C350.200378,393.657288 351.924500,394.405273 354.819397,393.934052 
	C361.704315,392.813354 368.619659,391.879700 376.390869,390.756195 
M317.502594,356.074402 
	C307.609039,364.333588 297.715515,372.592743 287.100128,381.454529 
	C295.767242,384.928619 303.462524,387.974731 311.122894,391.106384 
	C313.525177,392.088440 314.857178,390.734161 316.220825,389.177582 
	C320.712067,384.050842 325.221710,378.940216 329.712189,373.812805 
	C330.577606,372.824615 331.912964,371.763489 331.266571,370.378021 
	C328.440399,364.320435 325.432770,358.347504 322.295807,351.945465 
	C320.264435,353.681732 319.137878,354.644653 317.502594,356.074402 
M296.396210,330.993073 
	C297.162933,327.421783 297.942993,323.853302 298.694031,320.278717 
	C302.120087,303.972809 302.864349,307.705322 290.748169,298.190826 
	C281.983521,291.308167 285.297302,291.233704 275.353485,298.618530 
	C272.714478,300.578400 271.972229,302.705963 273.338196,305.878723 
	C278.657501,318.233978 283.806824,330.662445 289.009583,343.067780 
	C289.529205,344.306641 289.933411,345.726135 291.672516,345.484772 
	C293.306213,345.258057 293.587799,343.844147 293.873138,342.524017 
	C294.644897,338.953033 295.409729,335.380615 296.396210,330.993073 
M402.921967,564.527039 
	C393.693146,555.819580 384.464355,547.112061 374.859467,538.049683 
	C371.593536,544.408447 368.922729,549.948242 365.926208,555.305847 
	C364.320038,558.177612 365.021240,559.737793 367.662476,561.348511 
	C376.331818,566.635437 384.915405,572.064331 393.489258,577.505920 
	C396.024811,579.115112 398.886658,579.035217 401.660004,579.457092 
	C402.709656,579.616638 404.127167,579.286743 404.166504,578.329651 
	C404.349365,573.882019 406.993927,569.251526 402.921967,564.527039 
M316.341400,679.222046 
	C316.689453,681.898865 315.072021,685.678101 320.233032,685.510559 
	C328.379242,685.246155 336.532043,685.005371 344.680237,685.054077 
	C348.943420,685.079529 351.223572,682.968750 352.269196,679.248047 
	C353.212341,675.891968 353.852631,672.448181 354.559601,669.029297 
	C354.932770,667.224548 354.717072,665.637207 352.419922,665.344543 
	C341.538177,663.957947 330.654297,662.588013 319.773590,661.193359 
	C316.924408,660.828125 316.385773,662.513672 316.388733,664.812622 
	C316.394501,669.306458 316.356812,673.800232 316.341400,679.222046 
M395.994659,619.668396 
	C398.704895,615.691162 395.582733,615.958008 393.260620,616.159424 
	C382.193237,617.119507 371.129761,618.142456 360.082916,619.312988 
	C356.219971,619.722351 354.331665,624.101990 356.522797,627.570923 
	C360.597900,634.022400 364.802002,640.396667 369.108337,646.696411 
	C371.991455,650.914246 373.997406,650.913025 377.004761,646.706177 
	C383.275574,637.934265 389.416656,629.069580 395.994659,619.668396 
M494.037231,465.858978 
	C492.457123,477.986908 492.751923,489.352264 506.056915,495.432373 
	C506.203461,495.499359 506.334534,495.619232 506.447205,495.738617 
	C508.206085,497.602753 509.925507,497.331909 512.222778,496.352020 
	C520.402161,492.863037 522.913269,485.003998 526.792175,478.182770 
	C527.790894,476.426422 526.717407,475.416107 525.220703,474.670929 
	C516.612488,470.385132 508.042358,466.020233 499.380310,461.846100 
	C496.395386,460.407715 494.132202,461.043945 494.037231,465.858978 
M326.748413,382.237823 
	C323.840393,385.438446 320.861328,388.577972 318.042053,391.854950 
	C314.423553,396.060913 316.812866,405.034424 322.033173,406.674164 
	C327.426300,408.368225 332.894318,409.825775 338.340607,411.347260 
	C339.784271,411.750549 341.279449,412.082672 342.597870,410.942383 
	C344.909119,408.943451 347.886200,395.990082 346.576782,393.142639 
	C344.075195,387.702606 341.557709,382.266418 338.880646,376.911713 
	C336.619751,372.389465 335.047455,372.342896 331.730316,376.377441 
	C330.252472,378.174866 328.726501,379.932709 326.748413,382.237823 
M338.666321,728.598816 
	C331.083649,726.682434 323.501556,724.763916 315.917847,722.851685 
	C314.638336,722.529053 313.307312,721.958618 312.071350,722.834290 
	C309.127960,724.919678 309.393341,734.441650 312.438995,736.495728 
	C321.689148,742.734375 330.918701,749.004761 340.237549,755.139343 
	C341.887024,756.225098 343.988037,758.861877 345.824829,756.759521 
	C348.109222,754.144897 351.854889,750.842712 350.140717,747.290710 
	C347.071686,740.930908 344.510040,734.108276 338.666321,728.598816 
M468.988251,423.535736 
	C461.256226,421.196045 453.524200,418.856384 445.711334,416.492249 
	C443.041748,422.032654 441.983612,427.449646 440.217316,432.619904 
	C439.656952,434.260193 440.006805,435.506989 441.556549,436.433441 
	C448.558746,440.619568 455.415710,445.069580 462.575958,448.962982 
	C467.489502,451.634705 472.714386,448.242676 472.761932,442.813660 
	C472.802765,438.151031 472.743225,433.487366 472.805939,428.825165 
	C472.837799,426.455658 472.354095,424.508606 468.988251,423.535736 
M523.224670,636.621826 
	C519.968994,637.233337 518.280518,638.552917 519.445923,642.387817 
	C522.683899,653.042847 525.599487,663.795532 528.728149,674.484558 
	C529.114746,675.805359 529.031921,678.070007 530.944519,677.951782 
	C535.004333,677.700928 539.968750,678.434387 542.553894,674.929932 
	C545.253174,671.270752 548.356812,666.993164 545.779419,661.637756 
	C542.678589,655.194763 539.906372,648.590332 536.700745,642.201965 
	C532.069153,632.971802 534.367615,633.485718 523.224670,636.621826 
M527.777954,174.772812 
	C531.088196,179.791748 534.398499,184.810684 538.439758,190.938004 
	C538.921692,184.787872 539.343079,180.183945 539.633179,175.571747 
	C540.714600,158.374069 540.698547,158.372879 528.540710,146.062576 
	C527.722473,145.234116 526.894836,144.414932 526.079163,143.584015 
	C519.530945,136.913589 519.630432,137.037582 512.224426,142.920898 
	C509.719727,144.910645 509.373718,146.341171 511.159363,149.015640 
	C516.697998,157.311462 521.990173,165.771881 527.777954,174.772812 
M520.020752,596.615173 
	C525.408997,603.581177 530.792786,610.550598 536.189270,617.510254 
	C537.264771,618.897217 537.960449,621.041748 540.310303,620.397949 
	C542.436096,619.815491 542.627014,617.819946 542.952576,615.994446 
	C545.138367,603.739258 547.357849,591.490112 549.518005,579.230408 
	C549.737183,577.986694 550.138123,576.550232 548.055664,575.379700 
	C538.797363,580.911804 529.273743,586.579529 519.779358,592.295654 
	C517.974854,593.382019 518.577759,594.767273 520.020752,596.615173 
M287.206604,480.671600 
	C284.965057,482.743866 285.031067,484.253754 287.802673,486.072144 
	C293.783600,489.996002 299.666412,492.625092 306.478912,487.952759 
	C307.823242,487.030762 309.475922,486.508148 311.045868,485.977264 
	C313.337524,485.202393 314.471405,483.686523 314.989105,481.330627 
	C316.664917,473.704437 318.387726,466.084534 320.321655,458.520874 
	C321.249786,454.890900 318.484009,453.898712 316.495270,452.348907 
	C314.163055,450.531525 312.881226,452.571350 311.567810,454.003906 
	C303.588806,462.706604 295.636322,471.433655 287.206604,480.671600 
M385.867859,250.324249 
	C383.509766,254.337204 381.227814,258.397675 378.763947,262.344635 
	C377.368683,264.579803 377.384125,266.103394 379.794861,267.692474 
	C384.233307,270.618103 388.550568,273.741089 392.785034,276.957275 
	C395.095154,278.711884 396.847534,278.448761 398.887146,276.535095 
	C401.915283,273.693909 405.127625,271.046783 408.298492,268.360657 
	C411.689697,265.487915 412.710999,259.768372 409.477112,256.678223 
	C403.893646,251.342789 397.824402,246.484192 390.862854,242.101120 
	C389.139038,244.927109 387.684448,247.311737 385.867859,250.324249 
M623.763367,117.756226 
	C623.091431,115.781487 623.337097,113.446510 621.095581,111.451065 
	C614.984375,114.874649 608.801270,118.388832 602.570679,121.816681 
	C594.149048,126.449921 594.133423,126.421494 597.243408,135.476730 
	C600.111694,143.828217 600.128479,143.952393 608.968018,142.757874 
	C615.296875,141.902618 621.760010,141.738495 628.416504,139.817154 
	C626.863953,132.475586 625.391541,125.512962 623.763367,117.756226 
M409.778839,705.596252 
	C411.894012,705.564758 413.888977,707.086731 416.368073,706.022583 
	C416.495728,705.357788 416.873566,704.544556 416.758698,703.808228 
	C415.708313,697.075867 414.624969,690.347351 413.406860,683.643921 
	C413.215424,682.590454 412.539062,681.195557 411.680878,680.761658 
	C405.523651,677.648376 399.372955,674.462585 392.424500,672.478210 
	C388.692993,680.311096 389.037628,688.441528 387.637787,696.218689 
	C387.026733,699.613647 388.025391,701.126831 391.385803,701.740479 
	C397.272247,702.815369 403.104614,704.186279 409.778839,705.596252 
M253.904984,370.533966 
	C258.526062,375.075256 263.142792,379.620972 267.770569,384.155457 
	C269.461273,385.812012 271.176300,387.634735 273.785400,385.853394 
	C276.390167,384.075043 280.310394,383.435120 279.978729,378.985870 
	C279.571442,373.522491 279.170685,368.058655 278.775360,362.594391 
	C278.669464,361.130219 277.863373,360.106079 276.676666,359.394958 
	C270.162109,355.491333 263.629974,351.617004 256.704865,347.495148 
	C254.817947,352.767883 253.319931,357.674469 251.300247,362.355957 
	C249.842407,365.735168 250.515060,368.069855 253.904984,370.533966 
M353.471436,509.831329 
	C355.207825,510.410156 356.917358,511.132874 358.595734,509.602081 
	C366.440704,502.447235 374.403503,495.417664 382.114960,488.122223 
	C384.969482,485.421753 384.038757,481.962708 380.245972,480.870117 
	C374.035095,479.080963 367.704956,477.707428 361.432495,476.129303 
	C359.758850,475.708191 358.485443,476.016418 357.806366,477.748260 
	C354.007507,487.436493 350.207336,497.124207 346.495758,506.587463 
	C348.503235,508.741821 350.800934,508.806244 353.471436,509.831329 
M370.600891,474.833832 
	C373.641663,475.663971 376.687225,476.477020 379.721436,477.330505 
	C381.636780,477.869293 383.491211,477.955719 384.381012,475.810516 
	C386.264893,471.268921 388.984467,467.061096 390.210022,462.250610 
	C387.464905,459.893188 384.156464,459.772858 381.244476,458.741272 
	C372.333252,455.584412 363.324402,452.703278 354.353790,449.714020 
	C352.130920,448.973328 350.202332,448.997833 348.637970,451.190979 
	C347.188568,453.222992 347.816498,454.856384 349.041412,456.622009 
	C350.270203,458.393127 351.672516,460.130737 352.472656,462.097107 
	C355.663422,469.938324 361.421417,474.060242 370.600891,474.833832 
M408.762238,638.485779 
	C406.910217,631.319153 405.058197,624.152527 403.216339,617.025208 
	C400.604889,617.390320 400.306335,619.298767 399.408844,620.580505 
	C394.076874,628.195557 388.871368,635.899841 383.488525,643.478333 
	C376.188019,653.756836 376.669159,651.140808 386.154755,658.015442 
	C388.826843,659.951965 390.991272,660.170898 393.688690,657.944153 
	C397.523193,654.778625 401.516052,651.738403 405.742279,649.132935 
	C409.863342,646.592407 411.080017,643.581238 408.762238,638.485779 
M299.824463,331.177826 
	C299.273621,335.198730 297.523041,339.049896 297.822632,343.188049 
	C300.504150,344.491882 302.969513,343.449738 305.398376,343.517700 
	C316.166138,343.818726 323.000305,339.328156 325.465515,328.359161 
	C326.133484,325.386841 326.582336,323.047546 324.826721,320.469116 
	C320.048462,313.451508 311.783081,312.665741 304.601349,308.217407 
	C302.954071,316.187744 301.489868,323.272217 299.824463,331.177826 
M437.146912,673.192505 
	C430.514252,674.363586 424.695496,677.750610 418.484070,680.067810 
	C417.101440,680.583618 416.323303,681.695496 416.597931,683.215515 
	C417.987244,690.904480 419.218964,698.631348 420.942352,706.246094 
	C421.672241,709.471069 423.884827,710.704529 426.709564,707.708679 
	C433.218933,700.804932 439.732452,693.905029 446.265259,687.023499 
	C447.746765,685.462952 448.129028,683.851013 446.571594,682.191589 
	C443.742249,679.176941 441.592590,675.489807 437.146912,673.192505 
M364.304047,682.993835 
	C361.820251,683.144287 359.317749,683.152588 356.856750,683.476318 
	C352.397675,684.062805 351.388947,686.119568 353.778229,689.841919 
	C356.734467,694.447693 359.844666,698.955383 362.920776,703.483398 
	C365.977661,707.983093 376.339233,709.207214 380.065002,705.272461 
	C386.683685,698.282410 383.905487,689.244751 386.174438,680.453979 
	C378.345123,681.374207 371.781708,682.145691 364.304047,682.993835 
M446.326447,570.776001 
	C443.029999,574.063416 443.427887,577.104004 446.170715,580.772278 
	C450.636078,586.744141 454.612762,593.084778 458.722412,599.318176 
	C463.245758,606.179016 465.311096,606.625000 473.507355,601.938965 
	C467.493439,587.843811 461.458557,573.699524 455.033569,558.640930 
	C451.741211,563.219299 449.236206,566.702698 446.326447,570.776001 
M389.108978,670.849060 
	C390.281799,665.544678 387.325195,662.689941 383.275452,659.979492 
	C371.036163,651.787781 371.081421,651.657043 361.233551,662.534302 
	C356.812195,667.417786 357.251007,673.625610 356.010834,680.226379 
	C365.314880,679.175537 373.692383,678.038208 382.106934,677.362915 
	C386.068542,677.044983 388.245026,675.408203 389.108978,670.849060 
M300.854492,347.328766 
	C282.938141,349.087250 279.904419,363.598724 284.384552,379.412659 
	C295.934875,369.758606 307.378510,360.210846 318.792572,350.627869 
	C319.966278,349.642456 320.903198,348.426605 319.998535,346.726227 
	C319.098907,345.035309 317.517761,345.263519 316.050262,345.437195 
	C311.272278,346.002655 306.503296,346.644531 300.854492,347.328766 
M376.731171,521.230591 
	C380.467499,517.210571 384.241852,513.225098 387.932617,509.163727 
	C397.060150,499.119659 397.014221,498.770782 386.172394,490.182281 
	C386.056946,490.090820 385.853760,490.110138 385.185913,489.976807 
	C379.702606,494.782898 373.828949,499.637878 368.290192,504.848846 
	C357.791382,514.726196 358.370056,511.882172 367.549896,522.035400 
	C371.715729,526.643005 371.850281,526.521362 376.731171,521.230591 
M355.232697,473.048615 
	C352.085205,467.966461 348.873718,462.922424 345.816345,457.786652 
	C344.212219,455.092102 341.847595,455.070099 339.304596,455.560852 
	C336.451599,456.111481 337.047699,458.462097 337.098816,460.361450 
	C337.438354,472.979675 337.866394,485.595520 338.197632,498.213959 
	C338.283844,501.499634 339.546753,503.834656 343.264648,505.388977 
	C347.376068,494.690491 351.404144,484.208862 355.232697,473.048615 
M332.281982,529.228882 
	C331.265381,527.743835 330.421539,525.683105 328.090393,526.726501 
	C322.860474,529.067322 317.453033,531.100098 312.774323,534.174988 
	C313.150787,536.747009 314.759766,537.760376 316.117126,538.944092 
	C325.137909,546.810852 334.149811,554.688171 343.216675,562.501587 
	C345.076935,564.104736 346.696381,567.026062 349.833893,564.164612 
	C352.814453,561.446228 350.376556,559.276550 349.135010,557.175720 
	C343.722870,548.018066 338.163818,538.947327 332.281982,529.228882 
M384.787476,533.084534 
	C389.091797,532.664001 393.389099,532.040466 397.702820,531.890442 
	C400.854553,531.780884 402.188629,530.323181 402.531097,527.419434 
	C403.270630,521.148499 403.985352,514.872986 404.863220,508.620819 
	C405.226227,506.035400 404.975800,504.278595 402.123199,503.131775 
	C399.349091,502.016449 397.867645,503.010956 396.146698,504.947571 
	C390.511536,511.289032 384.654236,517.434021 379.059479,523.809998 
	C377.026917,526.126404 372.658875,527.877563 374.809204,531.861816 
	C376.838379,535.621643 380.766449,533.263672 384.787476,533.084534 
M334.648315,491.246246 
	C334.323486,481.296783 334.019989,471.346588 333.657257,461.398499 
	C333.577301,459.206207 334.316406,456.400146 330.651093,456.279144 
	C327.408966,456.172089 324.393280,456.093262 323.469391,460.443329 
	C321.919617,467.740356 319.977783,474.953705 318.238098,482.211182 
	C317.938049,483.462860 317.201416,484.948425 318.463287,485.958557 
	C323.422607,489.928619 328.470673,493.787842 333.507080,497.704773 
	C335.204315,495.431946 334.508575,493.725433 334.648315,491.246246 
M420.541779,233.861908 
	C417.687775,230.493256 415.908783,226.238937 412.981384,223.960281 
	C407.205963,229.823624 401.703735,235.409592 395.895203,241.306534 
	C400.789062,245.232864 406.155151,249.538055 411.883179,254.133652 
	C415.376801,249.499084 418.199097,245.394882 421.407410,241.618622 
	C423.765381,238.843231 423.518951,236.671677 420.541779,233.861908 
M388.718536,536.154541 
	C385.900787,536.599060 383.083038,537.043579 379.476868,537.612488 
	C388.696716,546.349548 397.127106,554.338501 406.144440,562.883606 
	C407.317352,557.159424 408.217560,552.619995 409.181427,548.094055 
	C410.942139,539.826294 406.152405,534.527344 397.525787,535.272949 
	C394.881714,535.501343 392.245331,535.818237 388.718536,536.154541 
M323.044617,564.539673 
	C324.177063,567.298279 325.262024,570.077698 326.460175,572.807495 
	C327.148865,574.376526 328.121796,575.777344 330.171967,575.472900 
	C333.444946,574.986938 336.804810,574.763123 339.953003,573.835022 
	C344.714417,572.431580 345.466675,568.741943 341.807343,565.547729 
	C334.315613,559.008179 326.747284,552.556152 319.198944,546.081604 
	C317.912445,544.978210 316.792480,543.555481 314.171417,543.073975 
	C317.199066,550.430420 319.959808,557.138245 323.044617,564.539673 
z"/>
</svg>